<?xml version="1.0" encoding="UTF-8"?>
<svg width="20px" height="16px" viewBox="0 0 20 16" version="1.1" xmlns="http://www.w3.org/2000/svg" xmlns:xlink="http://www.w3.org/1999/xlink">
    <!-- Generator: Sketch 49.1 (51147) - http://www.bohemiancoding.com/sketch -->
    <title>Shape</title>
    <desc>Created with Sketch.</desc>
    <defs></defs>
    <g id="Page-1" stroke="none" stroke-width="1" fill="none" fill-rule="evenodd">
        <g id="模型流程图-01" transform="translate(-440.000000, -312.000000)" fill="#CED4D9" fill-rule="nonzero">
            <g id="Group-9" transform="translate(426.000000, 216.000000)">
                <g id="Group-6" transform="translate(0.000000, 84.000000)">
                    <path d="M24.8333333,18.4000002 L18.1666667,18.4000002 C17.7064294,18.4000002 17.3333333,18.041828 17.3333333,17.6000002 C17.3333333,17.1581725 17.7064294,16.8000003 18.1666667,16.8000003 L24.8333333,16.8000003 C25.2935706,16.8000003 25.6666667,17.1581725 25.6666667,17.6000002 C25.6666667,18.041828 25.2935706,18.4000002 24.8333333,18.4000002 M17.3333333,20.7999999 C17.3333333,20.3581722 17.7064294,20 18.1666667,20 L21.5,20 C21.9602373,20 22.3333333,20.3581722 22.3333333,20.7999999 C22.3333333,21.2418277 21.9602373,21.5999998 21.5,21.5999998 L18.1666667,21.5999998 C17.7064294,21.5999998 17.3333333,21.2418277 17.3333333,20.7999999 M18.1666667,23.1999997 L21.5,23.1999997 C21.9602373,23.1999997 22.3333333,23.5581718 22.3333333,23.9999996 C22.3333333,24.4418273 21.9602373,24.7999995 21.5,24.7999995 L18.1666667,24.7999995 C17.7064294,24.7999995 17.3333333,24.4418273 17.3333333,23.9999996 C17.3333333,23.5581718 17.7064294,23.1999997 18.1666667,23.1999997 M32.3316667,12.0000008 L15.6683333,12.0000008 C14.7494817,11.9991133 14.0032155,12.7123081 14,13.5944007 L14,26.4055993 C14.0032155,27.2876919 14.7494817,28.0008867 15.6683333,27.9999992 L32.3316667,27.9999992 C33.2505183,28.0008867 33.9967845,27.2876919 34,26.4055993 L34,13.5944007 C33.9967845,12.7123081 33.2505183,11.9991133 32.3316667,12.0000008" id="Shape"></path>
                </g>
            </g>
        </g>
    </g>
</svg>